<?xml version="1.0" standalone="no"?>
<!DOCTYPE svg PUBLIC "-//W3C//DTD SVG 20010904//EN"
 "http://www.w3.org/TR/2001/REC-SVG-20010904/DTD/svg10.dtd">
<svg version="1.0" xmlns="http://www.w3.org/2000/svg"
 width="601.000000pt" height="458.000000pt" viewBox="0 0 601.000000 458.000000"
 preserveAspectRatio="xMidYMid meet">
<metadata>
Created by potrace 1.16, written by Peter Selinger 2001-2019
</metadata>
<g transform="translate(0.000000,458.000000) scale(0.100000,-0.100000)"
fill="#000000" stroke="none">
<path d="M1010 4446 l0 -135 -37 -3 c-26 -2 -38 -8 -38 -18 0 -10 12 -16 38
-18 l37 -3 0 -725 0 -724 -24 0 c-34 0 -56 -10 -56 -25 0 -15 22 -25 56 -25
l24 0 0 -720 0 -720 -27 -6 c-48 -10 -55 -14 -51 -27 3 -6 21 -13 41 -15 l37
-3 0 -229 c0 -164 3 -231 12 -236 6 -4 113 -6 237 -5 124 1 234 -1 244 -4 9
-4 17 -16 17 -27 0 -24 18 -58 30 -58 6 0 10 13 10 29 0 65 -66 61 993 61 529
0 972 -3 984 -6 17 -5 23 -15 25 -42 4 -50 26 -53 34 -3 3 22 11 41 18 43 6 2
453 2 994 0 l982 -4 0 -33 c0 -19 5 -37 10 -40 18 -11 40 15 40 46 l0 29 185
0 c178 0 185 1 185 20 0 20 -7 20 -2468 20 -1906 0 -2471 3 -2480 12 -9 9 -12
438 -12 1870 0 1851 0 1858 -20 1858 -19 0 -20 -7 -20 -134z"/>
<path d="M5935 4541 c-27 -21 -102 -76 -165 -123 -63 -46 -171 -126 -240 -177
-69 -51 -136 -101 -150 -111 -176 -132 -257 -190 -269 -190 -7 0 -22 11 -33
25 -11 14 -26 25 -34 25 -8 0 -14 4 -14 9 0 5 -15 11 -32 14 -18 3 -52 10 -75
16 -31 8 -82 8 -180 1 -76 -6 -169 -13 -208 -16 -38 -3 -74 -10 -80 -15 -5 -5
-31 -9 -58 -9 -45 0 -126 -20 -169 -41 -10 -5 -42 -9 -72 -9 -30 0 -57 -4 -60
-9 -3 -4 -41 -11 -83 -15 -43 -3 -121 -13 -173 -22 -52 -8 -168 -18 -256 -21
-161 -5 -162 -5 -203 21 -22 14 -46 26 -52 26 -22 0 -118 82 -134 113 -8 16
-15 50 -15 74 0 40 -2 43 -26 43 -17 0 -28 -6 -31 -20 -3 -11 -9 -20 -14 -20
-27 0 24 -127 66 -165 60 -55 102 -85 118 -85 9 0 36 -12 60 -27 41 -26 44
-26 227 -26 127 0 193 4 208 12 13 7 69 17 125 22 56 5 130 14 165 19 34 6 88
13 120 18 31 4 63 11 71 16 20 13 82 26 166 36 39 5 102 14 140 19 168 25 288
31 330 16 22 -8 52 -14 66 -15 28 0 69 -33 69 -55 0 -19 18 -5 -345 -275 -170
-127 -317 -236 -325 -243 -8 -6 -40 -30 -70 -52 -30 -22 -59 -43 -65 -48 -5
-4 -55 -41 -110 -82 -55 -41 -104 -78 -110 -82 -5 -4 -55 -41 -110 -82 -55
-41 -144 -107 -198 -148 -54 -40 -105 -73 -113 -73 -15 0 -97 50 -102 63 -2 4
-14 7 -26 7 -12 0 -26 4 -32 9 -8 8 -191 23 -279 22 -97 0 -262 -13 -280 -21
-11 -5 -42 -11 -70 -14 -27 -3 -75 -9 -105 -15 -104 -18 -373 -25 -440 -11
-33 7 -63 17 -66 21 -3 5 -22 9 -43 9 -21 0 -60 11 -87 25 -27 14 -63 25 -80
25 -21 0 -45 12 -75 37 -60 51 -118 115 -119 130 0 13 -47 29 -57 20 -16 -17
-2 -61 33 -104 21 -27 44 -51 51 -56 6 -4 18 -13 25 -20 39 -36 87 -65 121
-70 21 -3 57 -15 80 -26 23 -10 67 -24 97 -31 30 -6 71 -16 90 -22 54 -15 536
5 555 23 5 5 27 9 50 9 22 0 62 7 89 15 74 22 410 21 483 -2 29 -9 53 -20 53
-25 0 -4 8 -8 18 -8 17 0 52 -28 52 -42 0 -3 -78 -64 -172 -135 -298 -223
-283 -213 -317 -207 -39 8 -61 -9 -61 -46 0 -25 -28 -49 -252 -216 -283 -210
-598 -445 -613 -457 -5 -4 -55 -41 -110 -82 -55 -41 -104 -78 -110 -82 -30
-25 -74 -53 -84 -53 -8 0 -11 153 -11 532 l0 532 45 42 c42 38 45 44 45 90 0
27 -6 56 -13 64 -21 27 -65 50 -95 50 -67 0 -112 -48 -112 -120 0 -41 12 -58
74 -108 14 -11 16 -69 16 -565 0 -428 -3 -557 -13 -569 -6 -8 -65 -54 -130
-102 -64 -48 -117 -92 -117 -99 0 -7 4 -18 9 -26 13 -21 38 -8 161 86 57 43
131 98 165 123 78 57 177 130 235 175 25 19 171 128 325 243 154 114 356 265
449 334 94 70 174 125 178 122 4 -3 8 -100 8 -215 l0 -209 -25 -12 c-41 -19
-68 -72 -62 -121 11 -82 96 -122 168 -80 30 18 59 67 59 101 0 28 -41 85 -73
100 l-27 13 0 214 0 213 27 42 c19 28 88 86 213 179 232 172 250 184 256 178
3 -3 5 -85 5 -182 -1 -124 2 -182 11 -198 11 -20 18 -89 34 -372 2 -49 9 -99
14 -110 5 -11 11 -47 13 -80 3 -55 19 -131 37 -180 12 -31 84 -179 90 -185 4
-3 19 -23 36 -45 16 -22 42 -55 59 -73 28 -32 64 -96 65 -117 0 -20 62 -85 79
-85 10 0 24 12 31 26 13 24 12 27 -16 49 -17 13 -39 45 -49 72 -10 26 -30 62
-44 79 -14 17 -39 48 -56 69 -16 21 -36 44 -42 51 -7 7 -13 17 -13 23 0 6 -4
11 -8 11 -5 0 -16 19 -26 43 -9 23 -27 60 -38 82 -22 43 -37 115 -44 210 -3
33 -9 69 -13 80 -11 25 -55 496 -55 585 0 36 1 90 3 120 1 30 -1 76 -4 103 -4
26 -5 57 -1 70 5 22 225 192 249 192 9 0 13 -95 15 -402 l2 -401 -34 -22 c-36
-22 -66 -68 -66 -102 0 -25 23 -69 46 -89 50 -44 139 -27 169 32 31 59 1 146
-57 165 -17 5 -18 27 -18 439 l0 433 103 76 c56 42 122 92 147 111 43 33 444
331 485 361 51 37 332 247 347 259 34 28 52 23 61 -20 15 -62 20 -276 8 -288
-6 -6 -11 -27 -11 -47 0 -19 -10 -60 -21 -90 -12 -30 -24 -70 -26 -88 -3 -18
-9 -35 -14 -38 -5 -3 -9 -20 -9 -39 0 -19 -4 -37 -10 -40 -5 -3 -10 -16 -10
-28 0 -19 -17 -76 -40 -132 -5 -11 -11 -38 -14 -60 -3 -22 -13 -69 -22 -105
-9 -36 -19 -104 -21 -151 -4 -77 -2 -92 21 -140 14 -29 26 -59 26 -66 0 -7 3
-13 8 -13 4 0 16 -20 27 -45 11 -25 23 -45 28 -45 4 0 7 -5 7 -11 0 -6 11 -25
25 -43 14 -18 25 -36 25 -40 0 -15 60 -93 110 -143 39 -39 60 -53 81 -53 45 0
37 34 -21 92 -45 45 -100 116 -111 143 -2 6 -25 42 -52 82 -26 39 -47 79 -47
87 0 9 -4 16 -10 16 -5 0 -10 5 -10 10 0 6 -11 33 -25 62 -34 71 -32 116 11
257 8 25 14 57 14 72 0 16 4 38 9 51 5 13 14 43 21 68 22 79 42 145 51 162 5
10 9 33 9 51 0 18 4 37 9 43 12 13 32 71 44 129 9 46 13 326 5 440 l-3 50 430
323 c384 287 430 325 433 352 4 40 -12 38 -73 -9z"/>
<path d="M281 4424 c-50 -35 -68 -159 -34 -231 48 -103 177 -63 183 57 6 101
2 120 -34 156 -38 38 -77 44 -115 18z m83 -56 c18 -26 22 -129 6 -159 -12 -21
-50 -25 -68 -7 -15 15 -16 142 -2 169 14 26 45 24 64 -3z"/>
<path d="M632 4420 c-41 -25 -62 -73 -62 -142 0 -65 26 -112 75 -135 33 -16
37 -16 70 0 101 48 73 207 -36 207 -22 0 -39 4 -39 8 0 19 27 32 66 32 49 0
66 17 39 37 -27 19 -75 16 -113 -7z m79 -141 c16 -31 3 -86 -22 -92 -25 -7
-59 24 -59 53 0 54 58 81 81 39z"/>
<path d="M477 4193 c-4 -3 -7 -17 -7 -30 0 -18 5 -23 25 -23 20 0 25 5 25 24
0 13 -7 27 -16 30 -19 7 -19 7 -27 -1z"/>
<path d="M2327 3812 c-23 -26 -32 -101 -17 -147 17 -51 66 -105 96 -105 31 0
31 23 -1 48 -14 11 -32 33 -40 48 -19 38 -19 108 0 124 8 7 15 21 15 31 0 25
-32 25 -53 1z"/>
<path d="M3023 3814 c-3 -8 4 -25 17 -39 32 -34 39 -121 15 -176 -33 -71 14
-78 51 -8 32 62 5 202 -44 228 -27 14 -32 14 -39 -5z"/>
<path d="M2694 3785 c-7 -17 11 -193 20 -203 3 -2 13 -2 22 2 16 6 15 51 -5
170 -7 42 -27 58 -37 31z"/>
<path d="M2844 3789 c-79 -23 -28 -118 64 -119 21 0 35 6 39 16 7 19 -13 34
-48 34 -15 0 -32 7 -39 15 -20 24 42 19 74 -6 49 -38 28 -117 -24 -89 -28 15
-40 12 -40 -8 0 -47 74 -58 115 -17 48 47 20 142 -50 171 -38 16 -47 16 -91 3z"/>
<path d="M2114 3693 c-32 -6 -61 -40 -46 -55 9 -9 18 -9 37 0 34 16 60 15 74
-2 9 -10 6 -17 -13 -30 -15 -9 -27 -12 -31 -6 -3 5 -12 7 -21 3 -22 -8 -16
-198 6 -198 12 0 16 19 20 90 3 50 8 85 13 78 7 -12 44 -7 65 10 21 16 14 66
-13 92 -23 24 -43 28 -91 18z"/>
<path d="M2477 3693 c-13 -12 -7 -62 9 -77 18 -19 58 -30 78 -23 11 5 17 -5
22 -38 8 -55 5 -60 -24 -56 -20 2 -23 -1 -20 -21 2 -18 10 -24 36 -26 44 -4
62 12 62 57 0 50 -26 141 -45 160 -15 15 -18 14 -34 -8 -23 -30 -51 -22 -51
14 0 24 -18 34 -33 18z"/>
<path d="M2550 3360 c0 -6 12 -28 26 -50 40 -61 120 -98 243 -115 81 -11 137
-42 163 -91 23 -45 44 -56 54 -29 8 19 -40 101 -69 119 -33 21 -108 44 -183
56 -83 13 -133 38 -168 84 -25 33 -66 49 -66 26z"/>
<path d="M3075 3070 c-26 -29 -54 -34 -75 -15 -19 17 -50 15 -50 -4 0 -14 59
-61 77 -61 31 0 83 41 83 65 0 33 -14 38 -35 15z"/>
<path d="M258 2908 c-19 -28 -23 -45 -23 -113 0 -68 4 -85 23 -112 21 -30 29
-33 72 -33 42 0 52 4 74 31 40 47 40 173 0 227 -22 28 -30 32 -74 32 -43 0
-51 -3 -72 -32z m106 -30 c16 -23 22 -120 10 -152 -11 -30 -43 -40 -65 -20
-26 23 -28 148 -2 176 21 24 39 23 57 -4z"/>
<path d="M615 2844 c-67 -114 -66 -127 13 -132 47 -3 51 -5 54 -30 2 -21 9
-28 31 -30 24 -3 27 0 27 27 0 17 3 31 8 31 4 0 14 5 22 10 12 8 11 12 -7 32
-18 19 -23 37 -25 103 l-3 80 -31 3 c-29 3 -34 -2 -89 -94z m65 -34 c0 -47 -2
-50 -25 -50 -30 0 -32 18 -5 53 11 14 20 30 20 36 0 6 2 11 5 11 3 0 5 -22 5
-50z"/>
<path d="M2731 2700 c-18 -15 -30 -33 -27 -39 9 -14 49 -14 63 0 8 8 17 8 31
0 30 -16 42 -14 42 8 0 20 -44 61 -64 61 -6 -1 -26 -14 -45 -30z"/>
<path d="M470 2675 c0 -20 5 -25 25 -25 20 0 25 5 25 25 0 20 -5 25 -25 25
-20 0 -25 -5 -25 -25z"/>
<path d="M2799 2563 l-11 -28 -11 23 c-13 28 -41 25 -45 -6 -5 -30 13 -50 52
-60 28 -7 32 -13 37 -58 3 -27 5 -51 3 -53 -2 -2 -16 1 -30 8 -34 15 -55 0
-38 -27 24 -38 109 -41 116 -4 6 29 -13 175 -25 201 -17 35 -35 37 -48 4z"/>
<path d="M3167 2363 c-15 -14 -6 -32 22 -41 32 -11 32 -12 46 -156 3 -32 9
-66 14 -75 6 -11 3 -23 -9 -39 -19 -23 -16 -52 9 -107 5 -11 14 -45 20 -75 11
-53 11 -56 -19 -99 -20 -28 -28 -47 -22 -53 16 -16 46 0 71 38 21 33 22 44 16
103 -4 36 -16 86 -27 110 l-19 43 20 22 c25 26 26 39 6 69 -8 13 -17 61 -21
112 -4 50 -13 105 -21 123 -11 27 -18 32 -46 32 -19 0 -37 -3 -40 -7z"/>
<path d="M3362 2174 c-24 -17 -29 -43 -10 -62 7 -7 11 -29 9 -50 -3 -47 15
-64 66 -66 49 -1 60 29 14 39 -40 9 -47 22 -25 46 15 16 16 24 7 39 -10 14 -9
19 2 24 20 7 19 32 -1 40 -24 9 -38 7 -62 -10z"/>
<path d="M2776 1655 c-3 -9 -6 -27 -6 -39 0 -12 -7 -31 -15 -42 -13 -16 -16
-17 -25 -4 -5 8 -10 28 -10 43 0 31 -27 48 -41 26 -32 -50 13 -129 74 -129 34
0 34 -1 46 -57 20 -104 9 -132 -42 -99 -22 15 -25 15 -37 1 -11 -14 -10 -19 6
-35 10 -11 33 -22 51 -26 26 -5 37 -1 57 19 32 32 33 63 5 177 -11 47 -21 105
-22 130 -2 32 -6 46 -18 48 -9 2 -19 -4 -23 -13z"/>
<path d="M271 1429 c-30 -29 -41 -61 -41 -125 0 -102 46 -162 115 -151 64 10
87 52 87 154 -1 65 -4 79 -27 109 -22 29 -32 34 -69 34 -29 0 -49 -6 -65 -21z
m93 -45 c22 -21 22 -131 0 -162 -17 -24 -43 -29 -62 -10 -16 16 -16 160 0 176
17 17 44 15 62 -4z"/>
<path d="M587 1432 c-25 -27 -5 -40 53 -34 40 4 50 1 59 -15 13 -26 -6 -62
-76 -139 -29 -31 -53 -61 -53 -65 0 -21 34 -30 106 -27 66 3 79 6 82 21 3 14
-4 17 -35 17 -66 0 -71 12 -26 61 72 79 82 127 37 173 -22 21 -36 26 -79 26
-37 0 -56 -5 -68 -18z"/>
<path d="M470 1186 c0 -14 4 -27 9 -30 18 -11 41 6 41 30 0 19 -5 24 -25 24
-20 0 -25 -5 -25 -24z"/>
<path d="M1296 569 c-27 -31 -32 -61 -27 -149 5 -84 57 -130 125 -112 47 13
70 53 74 131 6 107 -28 160 -105 161 -34 0 -46 -5 -67 -31z m102 -31 c18 -18
16 -156 -2 -174 -19 -19 -40 -18 -57 3 -15 17 -20 134 -7 166 8 20 48 23 66 5z"/>
<path d="M1641 574 c-29 -37 -44 -100 -37 -154 11 -80 66 -128 127 -112 46 11
71 51 77 116 10 118 -24 176 -102 176 -36 0 -48 -5 -65 -26z m107 -68 c31 -95
-26 -200 -72 -134 -19 27 -21 129 -3 158 21 35 60 22 75 -24z"/>
<path d="M3342 584 c-30 -34 -42 -72 -42 -135 0 -52 5 -73 23 -99 26 -39 69
-54 112 -40 48 16 67 58 66 146 0 66 -4 81 -26 110 -23 30 -31 34 -73 34 -29
-1 -52 -7 -60 -16z m101 -74 c11 -41 3 -126 -14 -146 -15 -18 -37 -18 -55 0
-18 19 -20 156 -2 174 7 7 24 12 37 10 19 -2 27 -11 34 -38z"/>
<path d="M3662 588 c-28 -28 -6 -50 38 -38 41 12 70 -5 70 -39 0 -23 -14 -46
-58 -93 -32 -35 -61 -71 -65 -80 -10 -27 25 -39 106 -36 64 3 72 5 72 23 0 17
-8 21 -50 25 l-50 5 36 40 c55 62 69 87 69 123 0 53 -37 82 -103 82 -29 0 -58
-5 -65 -12z"/>
<path d="M5373 578 c-57 -64 -55 -194 4 -250 30 -28 94 -29 123 -3 51 47 54
196 4 250 -31 34 -101 35 -131 3z m95 -45 c30 -59 17 -167 -21 -179 -34 -11
-57 28 -57 97 0 33 6 68 12 79 16 25 54 26 66 3z"/>
<path d="M5754 558 c-14 -24 -40 -64 -56 -90 -39 -62 -35 -92 12 -96 63 -5 78
-11 82 -35 4 -31 52 -32 56 0 2 12 10 27 18 33 18 16 18 37 -1 47 -10 6 -15
32 -17 93 l-3 85 -32 3 c-28 3 -35 -2 -59 -40z m36 -98 c0 -38 -2 -40 -30 -40
-32 0 -32 11 -2 58 21 33 32 27 32 -18z"/>
<path d="M1512 358 c-26 -26 -2 -64 30 -47 10 5 18 16 18 24 0 21 -34 37 -48
23z"/>
<path d="M5588 363 c-24 -6 -23 -40 1 -52 27 -15 47 10 31 38 -6 12 -12 20
-13 20 -1 -1 -10 -3 -19 -6z"/>
<path d="M3540 335 c0 -20 5 -25 25 -25 20 0 25 5 25 25 0 20 -5 25 -25 25
-20 0 -25 -5 -25 -25z"/>
</g>
</svg>
